<svg width="76" height="13" viewBox="0 0 76 13" fill="none" xmlns="http://www.w3.org/2000/svg">
<path fill-rule="evenodd" clip-rule="evenodd" d="M5.77606 9.11502L2.38098 10.8999L3.02938 7.11944L0.282701 4.44209L4.07852 3.89052L5.77606 0.450928L7.4736 3.89052L11.2694 4.44209L8.52274 7.11944L9.17115 10.8999L5.77606 9.11502Z" fill="#FF7F02"/>
<path fill-rule="evenodd" clip-rule="evenodd" d="M21.782 9.11502L18.387 10.8999L19.0354 7.11944L16.2887 4.44209L20.0845 3.89052L21.782 0.450928L23.4796 3.89052L27.2754 4.44209L24.5287 7.11944L25.1771 10.8999L21.782 9.11502Z" fill="#FF7F02"/>
<path fill-rule="evenodd" clip-rule="evenodd" d="M37.7874 9.11502L34.3923 10.8999L35.0407 7.11944L32.294 4.44209L36.0898 3.89052L37.7874 0.450928L39.4849 3.89052L43.2807 4.44209L40.534 7.11944L41.1824 10.8999L37.7874 9.11502Z" fill="#FF7F02"/>
<path fill-rule="evenodd" clip-rule="evenodd" d="M69.7994 9.11502L73.1945 10.8999L72.5461 7.11944L75.2927 4.44209L71.4969 3.89052L69.7994 0.450928L68.1018 3.89052L64.306 4.44209L67.0527 7.11944L66.4043 10.8999L69.7994 9.11502Z" fill="#FF7F02"/>
<path fill-rule="evenodd" clip-rule="evenodd" d="M53.7933 9.11502L57.1884 10.8999L56.54 7.11944L59.2867 4.44209L55.4909 3.89052L53.7933 0.450928L52.0958 3.89052L48.3 4.44209L51.0467 7.11944L50.3983 10.8999L53.7933 9.11502Z" fill="#FF7F02"/>
</svg>
